<?xml version="1.0" encoding="utf-8" ?>
<svg xmlns="http://www.w3.org/2000/svg" xmlns:xlink="http://www.w3.org/1999/xlink" width="2048" height="2048">
	<path fill="#60504F" d="M1018.73 362.444C1026.52 361.697 1036 363.146 1042.98 366.781C1058.83 375.039 1073.04 391.09 1086.23 403.114C1108.73 423.621 1131.19 444.507 1154.09 464.546L1526.71 796.544C1566.42 832.372 1607.83 866.457 1646.85 903.035C1652.27 908.12 1655.94 912.077 1658.23 919.357C1661.12 928.558 1660.83 937.789 1656.03 946.311C1651.22 954.86 1642.59 961.076 1633.17 963.584C1624.97 965.767 1616.85 964.76 1609.3 960.974C1600.77 956.696 1594.27 949.707 1587.37 943.286C1573.68 930.54 1552.7 908.903 1537.1 900.085C1536.81 899.922 1536.51 899.769 1536.22 899.611L1536.39 969.949C1536.48 981.463 1537.37 993.173 1536.61 1004.66C1526.23 1012.56 1479.09 1027.07 1464.2 1031.38C1464.83 989.426 1464.32 947.401 1464.41 905.437C1464.46 885.946 1466.4 856.926 1463.86 838.366C1460.16 832.62 1456.08 827.089 1451.27 822.21C1442.14 812.934 1431.5 804.746 1421.73 796.101L1363.8 744.489L1312.77 698.566C1298.71 685.825 1285.33 672.732 1269.34 662.369C1259.32 655.878 1248.43 654.723 1237.34 651.048C1232.91 649.579 1229 647.365 1224.42 646.155C1211.73 642.81 1198.45 640.998 1185.5 639.094C1096.58 626.029 1005.3 639.272 921.632 670.887C902.98 677.935 883.243 685.465 866.019 695.625L865.694 695.537C815.737 720.654 772.321 751.917 730.36 788.801C651.066 858.501 589.475 962.885 582.956 1069.63C582.045 1084.55 583.494 1099.91 583.58 1114.9C583.827 1158.1 585.092 1208.3 582.25 1250.83C566.664 1254.35 526.902 1261.21 511.907 1260.43C509.714 1251.67 511.576 1186.71 511.583 1173.11L511.788 898.727C497.134 911.707 482.21 924.398 467.644 937.473C460.044 944.295 453.038 952.06 445.055 958.414C442.702 960.286 440.678 961.572 437.817 962.519C427.951 965.785 414.888 965.211 405.594 960.501C397.797 956.55 392.114 949.515 389.505 941.204C386.543 931.765 387.494 921.533 392.145 912.801C399.013 900.053 531.437 786.39 553.62 766.718L833.797 517.008L933.367 427.859C954.341 408.982 975.188 389.285 997.184 371.601C1003.69 366.372 1010.87 364.71 1018.73 362.444Z"/>
	<path fill="#60504F" d="M1533.34 1148.23L1534.47 1148.31C1536.15 1149.92 1536.23 1150.86 1536.33 1153.11C1537.27 1174.52 1535.98 1196.49 1535.99 1217.96L1536.1 1365.45L1535.94 1468C1535.91 1484.42 1537.23 1501.83 1535.56 1518.11C1534.72 1526.27 1532.24 1533.86 1526.62 1539.99C1522.15 1544.86 1512.54 1552.06 1505.65 1552.26C1402.56 1554.27 1299.44 1554.42 1196.34 1552.73L995.725 1552.72L712.695 1552.62C671.671 1552.84 630.645 1552.8 589.621 1552.5C575.994 1552.43 562.253 1553.04 548.649 1552.66C543.882 1552.54 539.183 1551.51 534.813 1549.6C524.944 1545.35 518.153 1537.83 514.448 1527.77C512.704 1523.03 511.873 1518.07 511.623 1513.04C511.175 1504.02 511.061 1398.36 512.739 1395.43C514.704 1392 535.551 1391.35 540.708 1389.68C541.021 1389.58 541.329 1389.46 541.64 1389.35C542.573 1389.13 543.554 1388.86 544.517 1388.84C556.712 1388.57 568.803 1386.09 581.024 1386.43C587.695 1395.5 577.511 1460.37 585.293 1476.06C588.165 1481.86 592.303 1482.6 598.217 1482.95C617.853 1484.1 637.664 1482.6 657.298 1482C676.458 1481.61 695.622 1481.45 714.786 1481.54L991.926 1482.39C1005.01 1482.46 1033.58 1477.1 1042.95 1480.37C1044.19 1482.1 1045.33 1483.47 1047.25 1484.47C1052.44 1487.19 1064.14 1490.17 1069.75 1487.73C1073.82 1485.96 1079.56 1484.36 1082.97 1481.71C1088.9 1477.1 1089.87 1468.87 1097.49 1465.48C1111.13 1459.41 1127.34 1457.14 1141.55 1452.09C1156.29 1446.88 1170.94 1441.43 1185.5 1435.74C1197.06 1431.09 1208.42 1425.75 1220.26 1421.88L1221.85 1421.37C1223.69 1435.18 1226.91 1452.58 1232.02 1465.48C1236.78 1477.49 1245.77 1487.61 1257.83 1492.65C1267.6 1496.81 1278.66 1496.75 1288.39 1492.47C1316.22 1480.44 1318.91 1447.52 1322.62 1421.49C1325.18 1403.6 1326.94 1385.4 1331.6 1367.91C1332.46 1364.69 1332.22 1360.84 1333.44 1357.81C1334.03 1356.34 1334.7 1355.15 1335.91 1354.1C1340.65 1349.99 1346.79 1346.68 1351.92 1342.99C1364.04 1334.38 1375.65 1325.08 1386.71 1315.15C1411.59 1292.71 1436.72 1267.77 1453.38 1238.45C1459.64 1227.43 1464.44 1214.26 1464.93 1201.5C1465.32 1191.43 1463.22 1181.26 1467.22 1171.68C1474.23 1167.65 1483.74 1165.65 1491.48 1163.01C1505.47 1158.19 1519.42 1153.26 1533.34 1148.23Z"/>
	<path fill="#60504F" d="M484.771 997.491L487.149 998.421C487.616 999.513 487.762 999.724 488.006 1001.07C489.18 1007.54 489.888 1045.13 486.389 1048.33C481.619 1052.68 435.701 1071.66 425.958 1076.13C384.201 1095.31 344.505 1117.16 304.749 1140.13C283.328 1152.51 260.973 1164.7 241.397 1179.87C229.705 1188.94 218.385 1199.36 210.56 1212.05C203.407 1223.64 198.747 1237.97 202.3 1251.56C205.907 1265.34 216.345 1274.75 228.33 1281.48C259.802 1299.17 300.853 1301.85 336.421 1302.45C344.975 1302.59 353.468 1301.05 362.024 1300.78C410.155 1299.3 457.657 1294.24 505.383 1288.19C577.923 1278.99 650.032 1269.26 722.015 1256.23C763.296 1248.76 804.049 1239.26 845.122 1231.02C854.358 1229.17 863.744 1228.05 872.967 1226.13C898.034 1220.93 922.932 1214.6 947.955 1209.14C966.103 1205.18 984.339 1202.18 1002.23 1197.08C995.034 1212.1 987.068 1227.13 973.657 1237.45C966.71 1242.8 959.351 1247.69 953.558 1254.35C946.475 1262.48 943.342 1271.21 944.257 1282C944.448 1284.24 944.62 1285.08 944.007 1287.28C933.965 1295.81 893.551 1297.07 878.736 1303.63C876.546 1304.6 877.719 1304.59 875.551 1303.89C868.6 1304.57 862.37 1307.91 855.532 1308.99C816.91 1315.11 778.776 1324.15 740.256 1330.95C616.47 1352.79 490.799 1373.24 365.106 1379.47C342.073 1380.61 318.99 1380.45 295.936 1380.71C235.676 1381.38 169.995 1381.57 112.901 1360.19C85.5973 1349.97 64.1331 1335.81 51.9711 1308.5C42.9074 1288.15 43.9784 1269.92 51.9857 1249.41C56.2093 1238.59 62.936 1225.9 70.4855 1217.02C131.297 1145.44 290.365 1073.94 378.872 1038.2C400.482 1029.47 422.263 1020.84 444.092 1012.69C457.678 1007.61 471.472 1003.33 484.771 997.491Z"/>
	<path fill="#60504F" d="M1270.53 768.178C1271.43 768.115 1272.13 767.999 1273.04 768.284C1278.39 769.958 1280.93 775.591 1282.44 780.475C1286.27 792.875 1285.87 805.345 1288.09 817.852L1293.23 848.137C1300.77 895.362 1312.17 942.552 1330.7 986.693C1346.77 1024.98 1372.39 1070.74 1409.3 1092.22C1421.52 1099.33 1435.37 1103.61 1448.43 1108.94L1453.57 1118.28C1452.72 1121 1451.91 1124.42 1450.19 1126.73C1441.23 1138.72 1418.96 1141 1406.59 1149.38C1339.14 1195.07 1308.13 1303.96 1294.49 1380.54C1290.17 1404.79 1288.53 1429.65 1283.7 1453.73C1282.23 1461.07 1281.31 1466.94 1274.72 1471.32C1269.37 1470.78 1265.56 1467.62 1263.42 1462.64C1260.87 1456.7 1253.95 1405.06 1252.33 1395.37C1247.99 1369.44 1242.44 1342.65 1235.88 1317.19C1222.19 1264.11 1189.59 1182.82 1142.13 1152.33C1136.15 1148.49 1129.93 1144.81 1123.55 1141.67C1113.6 1136.79 1099.37 1133.62 1091.81 1125.35C1091.35 1123.05 1091.47 1120.88 1091.81 1118.57C1092.32 1115.15 1093.68 1111.7 1096.36 1109.42C1103.23 1103.57 1117.36 1099.9 1125.72 1096.13C1133.43 1092.65 1140.74 1088.34 1147.51 1083.28C1162.53 1072.11 1173.58 1057.91 1183.98 1042.55C1228.08 977.422 1244.29 898.725 1255.87 822.203C1257.48 811.598 1260.09 782.348 1264.51 774.132C1265.91 771.537 1268.21 769.891 1270.53 768.178Z"/>
	<path fill="#60504F" d="M1724.32 733.524C1759.83 733.06 1795.34 734.378 1830.72 737.472C1874.96 741.669 1931.47 752.859 1961.01 789.002C1972.75 803.321 1978.22 821.772 1976.18 840.178C1972.33 875.852 1944.79 905.956 1918.01 927.42C1874.49 962.295 1835.38 984.028 1786.32 1009.39C1706.78 1050.51 1623.01 1084.57 1538.91 1115.24C1526.04 1119.94 1490.23 1135.87 1478.4 1134.57C1479.84 1131.13 1481.81 1127.63 1482.44 1123.93C1484.18 1113.6 1478.27 1100.31 1472.43 1091.98C1472.17 1091.61 1471.91 1091.25 1471.65 1090.89C1466.97 1087.68 1462.9 1083.25 1458.17 1079.89C1453.82 1076.79 1447.74 1074.41 1444.36 1070.31C1451.16 1063.56 1527.31 1039.79 1542.28 1034.13C1567.01 1024.62 1591.59 1014.7 1615.99 1004.36C1632.12 997.607 1648.59 991.676 1664.45 984.269C1700.48 967.435 1751.91 937.574 1778.45 907.64C1782.78 902.761 1789.96 896.794 1792.48 890.834C1796.81 880.602 1803.96 871.239 1803.92 859.647C1803.88 850.003 1799.61 841.233 1792.78 834.568C1762.75 805.271 1668.69 790.981 1626.76 788.645C1614.25 787.949 1601.53 787.406 1589 787.564C1581.64 787.657 1574.3 788.678 1566.94 788.54C1548.7 788.197 1531.85 771.934 1519.91 759.242C1517.19 756.352 1513.55 752.815 1513.66 748.709C1522.87 745.676 1533.47 747.421 1543.02 745.848C1565.58 742.136 1587.33 740.883 1610.07 739.67C1634.21 738.382 1658.38 736.417 1682.57 735.162C1695.56 734.487 1709.51 735.519 1722.32 733.809L1724.32 733.524Z"/>
	<path fill="#60504F" d="M1061.31 1089.54C1064.08 1090.1 1065.85 1090.03 1067.42 1092.71C1069.76 1096.71 1070.9 1112.88 1071.85 1118.38C1078.91 1159.15 1086.38 1202.84 1110.48 1237.44C1123.35 1255.92 1137.27 1269.76 1160.14 1273.73L1160.52 1282.7C1148.95 1290.55 1136.68 1293.38 1125.85 1303.12C1098.09 1328.09 1080.8 1382.94 1075.5 1419.37C1074.13 1428.78 1071.75 1462.21 1066.97 1469.03C1065.45 1471.21 1065.08 1471.14 1062.6 1471.59L1060.43 1469.67C1060.3 1469.42 1060.16 1469.17 1060.03 1468.92C1059.82 1468.51 1059.63 1468.08 1059.41 1467.67C1052.56 1454.75 1051.01 1428.66 1048.74 1413.68C1044.33 1384.52 1028.86 1336.96 1008.98 1314.26C1004.03 1308.61 997.17 1299.82 991.009 1295.88C983.821 1291.27 973.195 1289.01 967.242 1283.03C965.088 1280.87 964.469 1278.85 964.605 1275.88C967.089 1273.36 970.427 1271.26 974.047 1271.13C981.687 1270.88 988.992 1264.3 994.832 1259.78C1026.89 1234.98 1041.2 1187.05 1048.45 1148.77C1050.81 1136.3 1053.11 1097.58 1061.31 1089.54Z"/>
	<path fill="#60504F" d="M1114.26 1176.55C1116.34 1176.41 1117.88 1176.6 1119.84 1177.38C1135.68 1183.67 1158.97 1214.7 1165.28 1230.15C1164.65 1232.87 1163.1 1233.47 1161.02 1235.2C1160.54 1235.28 1160.04 1235.27 1159.57 1235.42C1158.47 1235.76 1157.52 1236.49 1156.43 1236.85C1154.75 1237.39 1153.7 1237.58 1152.12 1236.86C1137.73 1230.38 1119.77 1191.23 1114.26 1176.55Z"/>
</svg>
